<svg version="1.1" id="Layer_1" xmlns="http://www.w3.org/2000/svg" xmlns:xlink="http://www.w3.org/1999/xlink" x="0px" y="0px"
	 viewBox="0 0 87.2 20.3" style="enable-background:new 0 0 87.2 20.3;" xml:space="preserve">
<g>
	<g>
		<g>
			<g>
				<path d="M5.6,6c0,0,0.7,0.4,1.5,1.1c0.9,0.7,2,1.7,3.1,2.8c1.1,1.1,2.1,2.2,2.9,3c0.7,0.9,1.2,1.5,1.2,1.5
					s-0.7-0.4-1.5-1.1c-0.9-0.7-2-1.7-3.1-2.8c-1.1-1.1-2.1-2.2-2.9-3C6.1,6.6,5.6,6,5.6,6z"/>
			</g>
			<g>
				<path d="M5.8,14.5c0,0,0.4-0.7,1.1-1.5c0.7-0.9,1.7-2,2.8-3.1c1.1-1.1,2.2-2.1,3-2.9c0.9-0.7,1.5-1.2,1.5-1.2
					s-0.4,0.7-1.1,1.5c-0.7,0.9-1.7,2-2.8,3.1c-1.1,1.1-2.2,2.1-3,2.9C6.4,14.1,5.8,14.5,5.8,14.5z"/>
			</g>
		</g>
		<g>
			<g>
				<path d="M39.1,6c0,0,0.7,0.4,1.5,1.1c0.9,0.7,2,1.7,3.1,2.8c1.1,1.1,2.1,2.2,2.9,3c0.7,0.9,1.2,1.5,1.2,1.5
					s-0.7-0.4-1.5-1.1c-0.9-0.7-2-1.7-3.1-2.8c-1.1-1.1-2.1-2.2-2.9-3C39.5,6.6,39.1,6,39.1,6z"/>
			</g>
			<g>
				<path d="M39.3,14.5c0,0,0.4-0.7,1.1-1.5c0.7-0.9,1.7-2,2.8-3.1c1.1-1.1,2.2-2.1,3-2.9c0.9-0.7,1.5-1.2,1.5-1.2
					s-0.4,0.7-1.1,1.5c-0.7,0.9-1.7,2-2.8,3.1c-1.1,1.1-2.2,2.1-3,2.9C39.9,14.1,39.3,14.5,39.3,14.5z"/>
			</g>
		</g>
		<g>
			<g>
				<path d="M72.8,6c0,0,0.7,0.4,1.5,1.1c0.9,0.7,2,1.7,3.1,2.8c1.1,1.1,2.1,2.2,2.9,3c0.7,0.9,1.2,1.5,1.2,1.5
					S80.9,14,80,13.3c-0.9-0.7-2-1.7-3.1-2.8c-1.1-1.1-2.1-2.2-2.9-3C73.2,6.6,72.8,6,72.8,6z"/>
			</g>
			<g>
				<path d="M73,14.5c0,0,0.4-0.7,1.1-1.5c0.7-0.9,1.7-2,2.8-3.1c1.1-1.1,2.2-2.1,3-2.9c0.9-0.7,1.5-1.2,1.5-1.2
					S81,6.5,80.3,7.3c-0.7,0.9-1.7,2-2.8,3.1c-1.1,1.1-2.2,2.1-3,2.9C73.6,14.1,73,14.5,73,14.5z"/>
			</g>
		</g>
	</g>
</g>
</svg>
