<svg version="1.1" id="Layer_1" xmlns="http://www.w3.org/2000/svg" xmlns:xlink="http://www.w3.org/1999/xlink" x="0px" y="0px"
	 viewBox="0 0 80 80" style="enable-background:new 0 0 80 80;" xml:space="preserve">
<g>
	<line class="svgstroke" x1="19" y1="4.2" x2="19" y2="15.7"/>
	<line class="svgstroke" x1="37.3" y1="4.2" x2="37.3" y2="15.7"/>
	<path class="svgstroke" d="M18,10c0,0-8.4-1.5-8.4,5.2c0,0-0.8,11.6,1.6,15.9c0,0,1.7,3.9,5.9,7c4.2,3.1,9.6,3.3,11.2,3.3"/>
	<path class="svgstroke" d="M38.5,10c0,0,8.4-1.5,8.4,5.2c0,0,0.8,11.6-1.6,15.9c0,0-1.7,3.9-5.9,7c-4.2,3.1-9.6,3.3-11.2,3.3l0,15.9
		c0,0,0.1,12.5,14.5,16.7c0,0,18.3,4.9,22.3-17.7"/>
	<circle class="svgstroke" cx="65" cy="48.5" r="7.2"/>
</g>
</svg>
