<svg version="1.1" xmlns="http://www.w3.org/2000/svg" xmlns:xlink="http://www.w3.org/1999/xlink" x="0px" y="0px"
	 viewBox="0 0 80 80" style="enable-background:new 0 0 80 80;" xml:space="preserve">
<g>
	<g>
		<path d="M13.3,40.8c0-15.3,11.4-29.3,27.1-29.3c15,0,26.3,11.7,26.3,25.2c0,11.2-6.2,15.9-10.7,15.9
			c-5.1,0-7-4-6.9-7.9c-2.2,4.6-6.6,7.9-11.4,7.9c-6.1,0-10.7-4-10.7-10.7c0-8.6,6.5-15.2,13.5-15.2c5,0,9,3.1,9.9,7.9l1.2-6.4
			l1.3,0.3l-2.3,12.4c-0.3,1.3-0.3,2.5-0.3,3.6c0,4,1.6,7,5.7,7c4.2,0,9.4-4.3,9.4-14.6c0-12.9-10.7-24.1-25-24.1
			c-15,0-25.7,13.3-25.7,28c0,15.9,11.6,26.5,26.4,26.5c5.8,0,10.8-1.5,15.1-4.4l0.7,1c-4.5,3-9.6,4.5-15.9,4.5
			C25.5,68.4,13.3,57.4,13.3,40.8z M49.7,37.6c0-5.5-4-9.6-9.2-9.6c-6.4,0-12.1,6-12.1,13.8c0,6,3.9,9.5,9.3,9.5
			C44.4,51.3,49.7,44.5,49.7,37.6z"/>
		<path d="M40.9,68.8c-16.2,0-28-11.8-28-28c0-16.3,12.3-29.6,27.5-29.6c14.7,0,26.6,11.5,26.6,25.5
			C67.1,48.6,60.4,53,56,53c-2.2,0-3.9-0.7-5.2-2c-1.1-1.2-1.9-2.9-2.1-4.8c-2.5,4.2-6.7,6.8-11,6.8c-6.6,0-11.1-4.5-11.1-11.1
			c0-8.4,6.4-15.6,13.9-15.6c4.6,0,8.4,2.6,9.9,6.6l0.9-5.2l2,0.4L51,40.9c-0.2,1.1-0.3,2.2-0.3,3.6c0,4.4,1.8,6.6,5.3,6.6
			c3.6,0,9.1-3.8,9.1-14.2c0-13.3-10.8-23.7-24.7-23.7c-14,0-25.4,12.4-25.4,27.6c0,15.2,10.9,26.1,26,26.1c5.6,0,10.6-1.4,14.9-4.3
			l0.3-0.2l1.1,1.7L57,64.3C52.4,67.3,47.2,68.8,40.9,68.8z M40.4,11.9c-14.7,0-26.7,13-26.7,28.9c0,15.8,11.5,27.3,27.3,27.3
			c5.9,0,10.9-1.4,15.3-4.2L56,63.4c-4.3,2.8-9.4,4.2-15,4.2c-15.5,0-26.8-11.3-26.8-26.9c0-15.7,11.7-28.4,26.1-28.4
			c14,0,25.4,11,25.4,24.4c0,6-2.6,15-9.8,15c-3.9,0-6-2.6-6-7.3c0-1.4,0.1-2.6,0.3-3.7l2.2-12l-0.6-0.1l-1.5,8l-0.4-2
			c-0.9-4.6-4.7-7.6-9.6-7.6c-7.1,0-13.1,6.8-13.1,14.8c0,6.2,4.2,10.3,10.4,10.3c4.4,0,8.8-3,11-7.7l0.8-1.6l-0.1,1.8
			c-0.1,2.3,0.6,4.4,1.9,5.7c1.1,1.2,2.7,1.8,4.6,1.8c4.2,0,10.4-4.1,10.4-15.5C66.3,23.1,54.7,11.9,40.4,11.9z M37.7,51.7
			c-5.9,0-9.7-3.9-9.7-9.9c0-7.8,5.6-14.2,12.5-14.2c5.5,0,9.6,4.3,9.6,10C50.1,45.1,44.3,51.7,37.7,51.7z M40.5,28.3
			c-6.5,0-11.7,6-11.7,13.5c0,5.5,3.5,9.1,8.9,9.1c6.2,0,11.7-6.2,11.7-13.3C49.3,32.3,45.5,28.3,40.5,28.3z"/>
	</g>
</g>
</svg>
