<svg version="1.1" xmlns="http://www.w3.org/2000/svg" xmlns:xlink="http://www.w3.org/1999/xlink" x="0px" y="0px"
	 viewBox="0 0 80 80" style="enable-background:new 0 0 80 80;" xml:space="preserve">
<g>
	<g>
		<path class="svgstroke" d="M75.3,30.6c1.6,0.7,1.3,2.7-0.6,3.2L44.9,44.1c-4.6,1.4-7.6,1.1-12-0.5l-26.5-9c-5.7-1.5-5-3.9-0.1-5.6
			l26.8-9.7c2.1-0.8,6.3-2.2,12,0.2L75.3,30.6z"/>
		<path class="svgstroke" d="M16.5,38.5v14.9c0,0,1.8,5.4,12.4,6.4h23.1c0,0,7.5-1.2,9.9-6.5V38.5"/>
		<path class="svgstroke" d="M41.6,30.3l34.8,10.1V52c0,0-0.4,6.8-1.2,9.8h2.5c-0.5-2.3-1.3-9.8-1.3-9.8"/>
	</g>
</g>
</svg>
