<?xml version="1.0" encoding="utf-8"?>
<!-- Generator: Adobe Illustrator 19.2.1, SVG Export Plug-In . SVG Version: 6.00 Build 0)  -->
<svg version="1.1" id="Layer_1" xmlns="http://www.w3.org/2000/svg" xmlns:xlink="http://www.w3.org/1999/xlink" x="0px" y="0px"
	 viewBox="0 0 80 80" style="enable-background:new 0 0 80 80;" xml:space="preserve">
<style type="text/css">
	.st0{fill:none;stroke:#EE697C;stroke-width:1.7735;stroke-linecap:round;stroke-linejoin:round;stroke-miterlimit:10;}
</style>
<g id="_x36_9">
	<path class="st0" d="M32.8,50.3c-2.6,0-8.1-0.2-10.8-1.1c-0.1,0-0.3,0-0.4,0L7.1,56l5.7-14.6c0.1-0.2,0-0.4-0.1-0.5
		c-2.6-3.7-4.2-8.4-4.2-12.6c0-12.2,10.9-22,24.2-22c13.3,0,24.2,9.9,24.2,22S46.1,50.3,32.8,50.3z"/>
	<path class="st0" d="M56.8,25.8C65.4,29.1,71.4,37,71.4,46c0,4.2-1.6,8.9-4.2,12.6c-0.1,0.2-0.1,0.4-0.1,0.5l5.7,14.6l-14.4-6.8
		c-0.1-0.1-0.3-0.1-0.4,0c-2.7,0.9-8.3,1.1-10.8,1.1c-12,0-22-8-23.9-18.5"/>
</g>
</svg>
