<svg version="1.1" xmlns="http://www.w3.org/2000/svg" xmlns:xlink="http://www.w3.org/1999/xlink" x="0px" y="0px"
	 viewBox="0 0 80 80" style="enable-background:new 0 0 80 80;" xml:space="preserve">
<g>
	<path class="svgstroke" d="M33.6,50.7c-2.6,0-8.1-0.2-10.8-1.1c-0.1,0-0.3,0-0.4,0L7.9,56.4l5.7-14.6c0.1-0.2,0-0.4-0.1-0.5
		c-2.6-3.7-4.2-8.4-4.2-12.6c0-12.2,10.9-22,24.2-22c13.3,0,24.2,9.9,24.2,22S46.9,50.7,33.6,50.7z"/>
	<path class="svgstroke" d="M57.6,26.1c8.6,3.4,14.7,11.2,14.7,20.3c0,4.2-1.6,8.9-4.2,12.6c-0.1,0.2-0.1,0.4-0.1,0.5l5.7,14.6l-14.4-6.8
		c-0.1-0.1-0.3-0.1-0.4,0c-2.7,0.9-8.3,1.1-10.8,1.1c-12,0-22-8-23.9-18.5"/>
</g>
</svg>
