<?xml version="1.0" encoding="utf-8"?>
<!-- Generator: Adobe Illustrator 19.2.1, SVG Export Plug-In . SVG Version: 6.00 Build 0)  -->
<svg version="1.1" id="Layer_1" xmlns="http://www.w3.org/2000/svg" xmlns:xlink="http://www.w3.org/1999/xlink" x="0px" y="0px"
	 viewBox="0 0 80 80" style="enable-background:new 0 0 80 80;" xml:space="preserve">
<style type="text/css">
	.st0{fill:none;stroke:#EE697C;stroke-width:1.888;stroke-linecap:round;stroke-linejoin:round;stroke-miterlimit:10;}
</style>
<g id="_x33_84">
	<line class="st0" x1="19" y1="4.2" x2="19" y2="15.7"/>
	<line class="st0" x1="37.3" y1="4.2" x2="37.3" y2="15.7"/>
	<path class="st0" d="M18,10c0,0-8.4-1.5-8.4,5.2c0,0-0.8,11.6,1.6,15.9c0,0,1.7,3.9,5.9,7c4.2,3.1,9.6,3.3,11.2,3.3"/>
	<path class="st0" d="M38.5,10c0,0,8.4-1.5,8.4,5.2c0,0,0.8,11.6-1.6,15.9c0,0-1.7,3.9-5.9,7c-4.2,3.1-9.6,3.3-11.2,3.3l0,15.9
		c0,0,0.1,12.5,14.5,16.7c0,0,18.3,4.9,22.3-17.7"/>
	<circle class="st0" cx="65" cy="48.5" r="7.2"/>
</g>
</svg>
