<svg version="1.1" xmlns="http://www.w3.org/2000/svg" xmlns:xlink="http://www.w3.org/1999/xlink" x="0px" y="0px"
	 viewBox="0 0 360.333 180" enable-background="new 0 0 360.333 180" xml:space="preserve">
<g>
	<defs>
		<rect id="SVGID_1_" width="360.333" height="180"/>
	</defs>
	<clipPath id="SVGID_2_">
		<use xlink:href="#SVGID_1_"  overflow="visible"/>
	</clipPath>
	<path clip-path="url(#SVGID_2_)" fill="#D4DFEA" d="M140.38,89.836c0,32.545-26.383,58.927-58.927,58.927
		c-32.545,0-58.928-26.382-58.928-58.927s26.383-58.927,58.928-58.927C113.998,30.909,140.38,57.291,140.38,89.836"/>
	<path clip-path="url(#SVGID_2_)" fill="#FDEEEB" d="M129.934,89.836c0,26.775-21.706,48.481-48.481,48.481
		c-26.775,0-48.48-21.706-48.48-48.481c0-26.775,21.705-48.481,48.48-48.481C108.228,41.355,129.934,63.061,129.934,89.836"/>
	<path clip-path="url(#SVGID_2_)" fill="#EE697C" d="M122.502,89.836c0,22.671-18.378,41.049-41.049,41.049
		c-22.671,0-41.049-18.378-41.049-41.049s18.378-41.049,41.049-41.049C104.125,48.787,122.502,67.165,122.502,89.836"/>
	
		<path clip-path="url(#SVGID_2_)" fill="none" stroke="#FDEEEB" stroke-width="1.085" stroke-linecap="round" stroke-linejoin="round" stroke-miterlimit="10" d="
		M95.778,92.857l-0.044-3.247l16.334,0.021c-0.35,16.906-14.339,30.328-31.246,29.977c-3.676-0.076-7.114-1.007-10.429-2.053
		c-1.079-0.341-4.372,3.274-4.372,3.274s0.425-5.124-0.379-5.609c-9.063-5.478-15.032-15.51-14.797-26.858
		c0.351-16.906,14.34-30.327,31.246-29.977c11.31,0.234,21.059,6.572,26.171,15.803"/>
	<path clip-path="url(#SVGID_2_)" fill="#F1676E" d="M162.97,126.435h3.659c2.219,0,3.746,1.139,3.746,3.083v0.028
		c0,2.118-1.83,3.213-3.933,3.213h-2.723v3.759h-0.749V126.435z M166.485,132.066c1.873,0,3.141-0.979,3.141-2.477v-0.029
		c0-1.599-1.239-2.435-3.054-2.435h-2.853v4.94H166.485z"/>
	<path clip-path="url(#SVGID_2_)" fill="#F1676E" d="M175.115,126.435h4.236c1.239,0,2.233,0.389,2.838,0.994
		c0.476,0.475,0.763,1.152,0.763,1.872v0.029c0,1.686-1.253,2.65-2.953,2.882l3.328,4.307h-0.95l-3.213-4.178h-0.028h-3.271v4.178
		h-0.749V126.435z M179.264,131.664c1.686,0,2.938-0.851,2.938-2.306v-0.028c0-1.354-1.065-2.204-2.896-2.204h-3.443v4.538H179.264z
		"/>
	<rect x="194.694" y="125.023" clip-path="url(#SVGID_2_)" fill="#F1676E" width="0.634" height="13.339"/>
	<path clip-path="url(#SVGID_2_)" fill="#F1676E" d="M206.564,135.049l0.489-0.562c1.109,1.023,2.133,1.498,3.616,1.498
		c1.513,0,2.549-0.85,2.549-2.003v-0.028c0-1.065-0.562-1.686-2.852-2.146c-2.42-0.489-3.4-1.311-3.4-2.837v-0.029
		c0-1.498,1.369-2.65,3.242-2.65c1.469,0,2.434,0.403,3.456,1.225l-0.475,0.591c-0.951-0.821-1.901-1.138-3.01-1.138
		c-1.484,0-2.465,0.85-2.465,1.9v0.029c0,1.065,0.549,1.714,2.939,2.204c2.333,0.475,3.312,1.31,3.312,2.779v0.028
		c0,1.628-1.397,2.752-3.341,2.752C209.014,136.662,207.774,136.129,206.564,135.049"/>
	<path clip-path="url(#SVGID_2_)" fill="#F1676E" d="M218.162,131.506v-0.029c0-2.752,2.031-5.214,5.084-5.214
		c3.054,0,5.057,2.433,5.057,5.185c0.014,0.015,0.014,0.015,0,0.029c0,2.751-2.032,5.215-5.085,5.215
		C220.164,136.691,218.162,134.257,218.162,131.506 M227.525,131.506v-0.029c0-2.492-1.815-4.538-4.308-4.538
		s-4.278,2.018-4.278,4.509v0.029c0,2.492,1.815,4.538,4.307,4.538C225.738,136.015,227.525,133.998,227.525,131.506"/>
	<path clip-path="url(#SVGID_2_)" fill="#F1676E" d="M232.323,131.506v-0.029c0-2.853,2.132-5.214,5.042-5.214
		c1.8,0,2.88,0.662,3.917,1.612l-0.533,0.548c-0.878-0.851-1.887-1.484-3.399-1.484c-2.42,0-4.248,1.975-4.248,4.509v0.029
		c0,2.55,1.857,4.538,4.264,4.538c1.454,0,2.448-0.562,3.471-1.57l0.504,0.489c-1.065,1.052-2.219,1.758-4.004,1.758
		C234.455,136.691,232.323,134.4,232.323,131.506"/>
	<rect x="245.85" y="126.435" clip-path="url(#SVGID_2_)" fill="#F1676E" width="0.749" height="10.083"/>
	<path clip-path="url(#SVGID_2_)" fill="#F1676E" d="M255.689,126.363h0.721l4.696,10.155h-0.821l-1.282-2.824h-5.949l-1.281,2.824
		h-0.778L255.689,126.363z M258.687,133.018l-2.651-5.834l-2.664,5.834H258.687z"/>
	<polygon clip-path="url(#SVGID_2_)" fill="#F1676E" points="265.27,126.436 266.019,126.436 266.019,135.826 271.938,135.826 
		271.938,136.519 265.27,136.519 	"/>
	<polygon clip-path="url(#SVGID_2_)" fill="#F1676E" points="282.83,126.436 283.535,126.436 287.584,132.398 291.631,126.436 
		292.337,126.436 292.337,136.519 291.588,136.519 291.588,127.76 287.598,133.565 287.541,133.565 283.551,127.76 283.551,136.519 
		282.83,136.519 	"/>
	<polygon clip-path="url(#SVGID_2_)" fill="#F1676E" points="297.841,126.436 305.015,126.436 305.015,127.126 298.59,127.126 
		298.59,131.088 304.366,131.088 304.366,131.779 298.59,131.779 298.59,135.826 305.087,135.826 305.087,136.519 297.841,136.519 	
		"/>
	<path clip-path="url(#SVGID_2_)" fill="#F1676E" d="M309.999,126.436h3.357c3.169,0,5.357,2.175,5.357,5.012v0.029
		c0,2.838-2.188,5.042-5.357,5.042h-3.357V126.436z M313.356,135.826c2.809,0,4.581-1.916,4.581-4.32v-0.029
		c0-2.392-1.772-4.351-4.581-4.351h-2.608v8.7H313.356z"/>
	<rect x="323.34" y="126.435" clip-path="url(#SVGID_2_)" fill="#F1676E" width="0.749" height="10.083"/>
	<path clip-path="url(#SVGID_2_)" fill="#F1676E" d="M333.078,126.363h0.722l4.695,10.155h-0.82l-1.282-2.824h-5.949l-1.282,2.824
		h-0.777L333.078,126.363z M336.075,133.018l-2.65-5.834l-2.664,5.834H336.075z"/>
	<path clip-path="url(#SVGID_2_)" fill="#AF976D" d="M162.97,79.674v-2.821c0-15.18,6.719-27.456,18.499-27.456
		c4.728,0,8.212,1.41,11.363,4.479l-1.575,1.908c-2.654-2.572-5.558-3.982-9.788-3.982c-10.452,0-15.926,11.531-15.926,25.135v2.654
		c0,13.604,5.64,25.134,15.594,25.134c9.539,0,12.69-8.71,12.94-17.917h-12.525v-2.323h15.014v1.328
		c0,11.861-4.562,21.318-15.429,21.318C169.772,107.132,162.97,94.854,162.97,79.674"/>
	<path clip-path="url(#SVGID_2_)" fill="#AF976D" d="M215.312,79.675v-2.821c0-15.678,6.719-27.457,17.752-27.457
		c11.116,0,17.752,11.779,17.752,27.457v2.821c0,15.677-6.636,27.456-17.752,27.456C222.031,107.131,215.312,95.352,215.312,79.675
		 M248.244,79.592v-2.654c0-14.6-5.806-25.135-15.18-25.135c-9.373,0-15.18,10.535-15.18,25.135v2.654
		c0,14.599,5.807,25.134,15.18,25.134C242.438,104.726,248.244,94.19,248.244,79.592"/>
	<polygon clip-path="url(#SVGID_2_)" fill="#AF976D" points="271.221,50.061 273.709,50.061 273.709,104.145 292.29,104.145 
		292.29,106.468 271.221,106.468 	"/>
	<path clip-path="url(#SVGID_2_)" fill="#AF976D" d="M309.047,50.061h5.974c15.511,0,23.475,11.613,23.475,27.374v1.659
		c0,15.76-8.627,27.374-23.475,27.374h-5.974V50.061z M314.771,104.145c13.77,0,21.152-10.866,21.152-25.134v-1.493
		c0-14.267-6.471-25.134-21.152-25.134h-3.235v51.761H314.771z"/>
</g>
</svg>
