<?xml version="1.0" encoding="utf-8"?>
<!-- Generator: Adobe Illustrator 19.2.1, SVG Export Plug-In . SVG Version: 6.00 Build 0)  -->
<svg version="1.1" id="Layer_1" xmlns="http://www.w3.org/2000/svg" xmlns:xlink="http://www.w3.org/1999/xlink" x="0px" y="0px"
	 viewBox="0 0 80 80" style="enable-background:new 0 0 80 80;" xml:space="preserve">
<style type="text/css">
	.st0{fill:none;stroke:#EE697C;stroke-width:1.5666;stroke-linecap:round;stroke-linejoin:round;stroke-miterlimit:10;}
</style>
<g id="_x33_37">
	
		<ellipse transform="matrix(0.9004 -0.4352 0.4352 0.9004 -11.0319 28.6601)" class="st0" cx="57.1" cy="38.4" rx="10.6" ry="27.6"/>
	<path class="st0" d="M44.8,36.5l8.2-4.2c0.9-0.5,2-0.1,2.4,0.8l4.5,8.9c0.5,0.9,0.1,2-0.8,2.4l-8,4.5"/>
	<path class="st0" d="M41.8,23.7c-0.6,5.9-3.9,12.8-9,19.1c-3.4,4.2-7.4,7.6-11.3,9.9"/>
	<path class="st0" d="M60,60.4c-5.4-2.4-13.2-2.7-21.2-1.4c-4.6,0.8-8.8,2.2-12.4,4"/>
	<path class="st0" d="M9.9,62.1c-1.7-3.6-0.2-7.8,3.4-9.5l1.1-0.5c3.6-1.7,7.8-0.2,9.5,3.4l1.8,3.8c1.7,3.6,0.2,7.8-3.4,9.5
		l-1.1,0.5c-3.6,1.7-7.8,0.2-9.5-3.4L9.9,62.1z"/>
</g>
</svg>
