<svg version="1.1" xmlns="http://www.w3.org/2000/svg" xmlns:xlink="http://www.w3.org/1999/xlink" x="0px" y="0px"
	 viewBox="0 0 80 80" style="enable-background:new 0 0 80 80;" xml:space="preserve">
<g>
	<line class="svgstroke" x1="26.1" y1="24.6" x2="55.5" y2="24.6"/>
	<line class="svgstroke" x1="26.1" y1="14.1" x2="55.5" y2="14.1"/>
	<line class="svgstroke" x1="26.1" y1="35" x2="55.5" y2="35"/>
	<line class="svgstroke" x1="26.1" y1="45.5" x2="32.3" y2="45.5"/>
	<polygon class="svgstroke" points="58.7,63.3 65.7,63.3 65.7,2.6 15.9,2.6 15.9,63.3 38.9,63.3 34.4,76.5 40.7,73.4 43.7,78.6 46.8,65.4 
		50.9,65.4 53.8,78.6 56.8,73.4 63.1,76.5 	"/>
	<g>
		<path class="svgstroke" d="M48.7,38.6c-7.5,0-13.5,6-13.5,13.5c0,7.5,6,13.5,13.5,13.5c7.5,0,13.5-6,13.5-13.5
			C62.2,44.6,56.2,38.6,48.7,38.6z M53.1,59.4l-4.7-3.3l-4.6,3.4l1.4-5.5l-4.4-3.3l5.5-0.2l2-5.3l2.1,5.3l5.5,0.1l-4.3,3.4
			L53.1,59.4z"/>
	</g>
</g>
</svg>
